<svg xmlns="http://www.w3.org/2000/svg" xmlns:xlink="http://www.w3.org/1999/xlink" data-name="afcb9ff3-8250-4c7a-bd11-73381c22471b" width="700" height="715" style=""><rect id="backgroundrect" width="500.7142857142857" height="512.1428571428572" x="0" y="113.57143127918243" fill="none" stroke="none" class="" style=""/><g class="currentLayer" style=""><title>Layer 1</title><path d="M772.29584,711.7650999999981 l-1.07324,-0.4023500000000001 c-0.23584000000000005,-0.08886000000000004 -23.7085,-9.082 -34.70411,-29.47363 c-10.99609,-20.39258 -5.61181,-44.94531 -5.55615,-45.19043 l0.2534200000000001,-1.11816 l1.07275,0.4023400000000001 c0.23584000000000005,0.08887000000000003 23.708,9.082 34.7041,29.47363 c10.9961,20.39258 5.61182,44.94532 5.55616,45.19043 zM738.27924,680.9399999999982 c9.29638,17.24122 27.84521,26.07911 32.54492,28.09668 c0.8935500000000002,-5.03711 3.6958,-25.40625 -5.59229,-42.63086 c-9.28711,-17.22265 -27.84326,-26.07421 -32.54492,-28.09668 C731.79291,643.3490799999981 728.99164,663.7162699999982 738.27924,680.9399999999982 z" fill="#3f3d56" id="svg_1" class=""/><path d="M744.92163,674.7360499999982 c19.76056,11.88861 27.371,35.50268 27.371,35.50268 s-24.42779,4.3388100000000005 -44.18835,-7.5498 s-27.371,-35.50263 -27.371,-35.50263 S725.16107,662.8474299999982 744.92163,674.7360499999982 z" fill="#6c63ff" id="svg_2" class=""/><path d="M426.79175,381.9642899999982 a12.52013,12.52013 0 0 1 18.45947,-2.87711 a11.918,11.918 0 0 1 1.21039,1.15509 l49.211,-7.16434 l2.73877,-37.00512 a10.73344,10.73344 0 0 1 21.40857,1.58127 q-0.007330000000000002,0.09877000000000008 -0.016420000000000008,0.19738000000000006 l-4.79712,51.92527 l-0.023130000000000008,0.11557000000000003 a9.72362,9.72362 0 0 1 -9.39484,6.82034 l-57.88263,-0.99939 a11.71287,11.71287 0 0 1 -0.7260700000000002,0.99188 a12.52078,12.52078 0 0 1 -18.66761,0.7639200000000004 q-0.3738000000000002,-0.3827800000000001 -0.70825,-0.791 A12.55948,12.55948 0 0 1 426.79175,381.9642899999982 z" fill="#ffb7b7" id="svg_3" class=""/><polygon points="526.0059814453125,697.4789839062487 511.9700012207031,697.4780073437487 505.2929992675781,643.3409834179674 526.0079956054688,643.3419599804674 526.0059814453125,697.4789839062487 " fill="#ffb7b7" id="svg_4" class=""/><path d="M529.58527,711.0841899999982 l-45.25653,-0.0017100000000000012 V710.5099999999982 a17.616,17.616 0 0 1 17.61511,-17.61474 h0.0011000000000000005 l27.64111,0.0011000000000000005 z" fill="#000000" id="svg_5" class="" fill-opacity="1"/><polygon points="624.0819702148438,684.7540083203112 610.7979736328125,689.2839765820299 587,640.2020063671862 606.6069946289062,633.5149946484362 624.0819702148438,684.7540083203112 " fill="#ffb7b7" id="svg_6" class=""/><path d="M631.86218,696.4749399999981 l-42.83362,14.60925 l-0.18481000000000006,-0.5417500000000002 a17.616,17.616 0 0 1 10.985,-22.35852 l0.0010000000000000005,-0.0003600000000000002 l26.16138,-8.92273 z" fill="#000000" id="svg_7" class="" fill-opacity="1"/><path d="M541.46124,224.12599999999819 s-13.96991,-4.61358 -22.9505,13.84086 s-22.9505,38.7543 -22.9505,38.7543 l7.98279,1.84543 s1.99567,-12.91809 6.985,-14.76355 l-1.99567,16.609 s59.871,19.37713 86.81293,-1.84543 l-0.99787,-6.45908 s3.9914,0.92273 3.9914,6.45908 l2.99353,-2.76816 s-2.99353,-5.53632 -11.97425,-12.91809 c-5.89453,-4.84506 -7.9201,-14.06278 -8.61621,-19.82584 a23.10194,23.10194 0 0 0 -5.9732,-13.06512 C568.80054,223.59339999999818 557.92584,216.7954299999982 541.46124,224.12599999999819 z" fill="#000000" id="svg_8" class="" fill-opacity="1"/><circle cx="546.6107177734375" cy="263.08759596679556" r="25.515199661254883" fill="#ffb7b7" id="svg_9" class=""/><path d="M512.5903900000001,309.61293999999816 l-4.6391,-1.5463900000000002 s-9.27826,3.86594 -9.27826,10.82462 s-1.54638,34.79345 -1.54638,34.79345 l20.8761,2.31958 z" fill="#cbcbcb" id="svg_10" class=""/><path d="M595.62225,461.6974699999982 a12.063790000000001,12.063790000000001 0 0 1 -0.2758800000000001,-15.744 L582.32312,336.88655999999816 a9.7219,9.7219 0 0 1 19.418,-1.00061 q0.002840000000000002,0.053420000000000016 0.004940000000000003,0.10684 l11.650640000000001,109.18265 a11.71108,11.71108 0 0 1 1.16455,1.3634600000000001 a12.14374,12.14374 0 0 1 -2.7243,16.95642 q-0.20088,0.14520000000000005 -0.4074800000000001,0.2821700000000001 h0 a12.155,12.155 0 0 1 -10.27014,1.48492 A12.00615,12.00615 0 0 1 595.62225,461.6974699999982 z" fill="#ffb7b7" id="svg_11" class=""/><path d="M583.69482,353.6846199999982 l20.8761,-2.31955 s-1.54638,-27.83474 -1.54638,-34.79345 s-9.27826,-10.82462 -9.27826,-10.82462 l-4.63916,1.54636 z" fill="#cbcbcb" id="svg_12" class=""/><path d="M515.68317,392.30446999999816 s-17.78333,32.51349 -17.78333,71.946 S496.35345,684.6089999999982 496.35345,684.6089999999982 s23.19562,10.82465 37.113,-2.31958 l12.371,-200.25568 l48.71082,196.38971 s23.19562,4.63916 34.02026,-3.0927700000000002 l-20.876,-136.85413 s-8.50506,-128.34918 -31.70068,-137.62744 S515.68317,392.30446999999816 515.68317,392.30446999999816 z" fill="#000000" id="svg_13" class="" fill-opacity="1"/><path d="M519.03937,263.24937999999815 c9.03259,-6.537 16.34424,-14.06632 21.18091,-23.02274 c0,0 16.57641,18.41822 26.70642,19.33911 s0.9209,-22.10183 0.9209,-22.10183 l-18.41822,-4.60465 l-17.49731,1.84183 l-13.81366,9.20911 z" fill="#000000" id="svg_14" class="" fill-opacity="1"/><path d="M572.12585,301.1078699999982 s0.73633,-0.3952600000000001 -43.29632,1.20871 l-18.429,5.07538 l-2.4494000000000002,0.6745900000000002 s2.31958,46.39127 8.50507,54.89633 s4.6391,13.1442 3.0927700000000002,13.91739 s-5.41229,-0.77319 -3.0927700000000002,3.09274 s5.41229,1.5463900000000002 2.31958,3.86594 s-4.63916,10.82462 -4.63916,10.82462 l68.04053,9.27826 s2.31958,-30.15433 8.50506,-45.61808 s7.73187,-21.64926 7.73187,-21.64926 L593.775,305.7469999999982 z" fill="#cbcbcb" id="svg_15" class=""/><path d="M442.76672,169.2235299999982 h-3.91266 V62.036809999998184 A62.03672,62.03672 0 0 0 376.81744,-1.8189893933814611e-12 H149.72766 A62.03676,62.03676 0 0 0 87.69073,62.03656999999818 v588.035 a62.03674,62.03674 0 0 0 62.03666,62.0368 H376.81708 a62.03677,62.03677 0 0 0 62.037,-62.03656 h0 V245.52086999999818 h3.91266 z" fill="#000000" id="svg_16" class="" stroke="none" fill-opacity="1"/><path d="M425.65088,62.47262999999818 v587.17 a46.28864,46.28864 0 0 1 -46.24725,46.33 H151.1409 a46.29739,46.29739 0 0 1 -46.33,-46.26471 V62.47261999999818 a46.29736,46.29736 0 0 1 46.26471,-46.33 h27.7453 a22.008,22.008 0 0 0 20.38,30.32 h130.1 a22.008,22.008 0 0 0 20.38,-30.32 h29.64 a46.28851,46.28851 0 0 1 46.33,46.24691 v0.08311000000000003 z" fill="#fff" id="svg_17" class=""/><path d="M425.65076,149.34265999999818 v-20 h-30.27 v-110.34 a46.18578,46.18578 0 0 0 -16.06006,-2.8601 h-3.93994 v113.2001 h-105 v-82.88 h-20 v82.88 h-88 v-113.2 H151.141 a45.88934,45.88934 0 0 0 -8.76025,0.8300000000000002 v112.37 h-37.5698 v20 h37.56983 v46.26056 L104.81143,217.2929999999982 v23.1 l37.56934,-21.68973 v137.6394 H104.81094 v20 h37.56983 v199 H104.81094 v20 h37.56983 V695.1425999999982 a45.90089,45.90089 0 0 0 8.76025,0.8300000000000002 h11.23975 v-100.63 h88 v100.63 h20 v-100.63 h105 v100.63 h3.93994 a46.18452,46.18452 0 0 0 16.06006,-2.8600000000000003 v-97.7699 h30.27 v-20 h-30.27 v-87 h30 v-20 h-30 v-92 h30.27 v-20 h-30.27 v-122 h30.27 v-20 h-30.27 v-65 zm-203.13916,0 l-0.0004900000000000004,0.0003000000000000002 l-60.12988,34.72 l-0.0004900000000000004,0.0002400000000000002 V149.34265999999818 zm-60.13086,57.81056 l0.0004900000000000004,-0.0002400000000000002 l87.99951,-50.80976 V356.3426399999982 h-88 zm0,368.18945 v-199 h88 v199 zm213,0 h-105 v-87 h105 zm0,-107 h-105 v-92 h105 zm0,-112 h-105 v-122 h105 zm0,-142 h-105 v-65 h105 z" fill="#e5e5e5" id="svg_18" class=""/><path d="M450.2380030444717,214.7126099999982 c0,63.51272 -115,205 -115,205 s-115,-141.48728 -115,-205 a115,115 0 0 1 230,0 z" fill="#ebeb1a" id="svg_19" class="" fill-opacity="1" stroke="#000000" stroke-width="6" stroke-opacity="1"/><path d="M401.8107715818405,209.7126099999982 a68,68 0 1 1 -68,-68 h0 a67.96875,67.96875 0 0 1 68,67.93756 z" fill="#fff" id="svg_20" class=""/><circle cx="335.002711892128" cy="211.2223921093737" r="25.33333969116211" fill="#000000" id="svg_21" class="" fill-opacity="1"/><path d="M371.0548573131561,269.08256999999816 a68.07245,68.07245 0 0 1 -73.06983,-0.010000000000000028 a37.999,37.999 0 0 1 73.06983,0.010000000000000028 z" fill="#000000" id="svg_22" class="" fill-opacity="1"/><circle cx="333.80946147441864" cy="471.71256544921744" r="31" fill="#000000" id="svg_23" class="" fill-opacity="1"/><path d="M807,712.7126099999982 H3 a1,1 0 0 1 0,-2 H807 a1,1 0 0 1 0,2 z" fill="#000000" id="svg_24" class="" fill-opacity="1" stroke="#000000" stroke-opacity="1" stroke-width="4"/></g></svg>